<?xml version="1.0" standalone="no"?>
<!DOCTYPE svg PUBLIC "-//W3C//DTD SVG 20010904//EN"
 "http://www.w3.org/TR/2001/REC-SVG-20010904/DTD/svg10.dtd">
<svg version="1.0" xmlns="http://www.w3.org/2000/svg"
 width="800.000000pt" height="600.000000pt" viewBox="0 0 800.000000 600.000000"
 preserveAspectRatio="xMidYMid meet">

<g transform="translate(0.000000,600.000000) scale(0.100000,-0.100000)"
fill="#000000" stroke="none">
<path d="M509 5879 c-7 -4 -22 -6 -35 -4 -13 1 -24 -1 -24 -4 0 -4 -17 -8 -37
-9 -21 -2 -41 -9 -46 -17 -4 -8 -13 -15 -19 -15 -26 0 -96 -44 -111 -70 -22
-37 -22 -141 0 -242 15 -74 18 -79 50 -90 18 -7 33 -19 34 -28 1 -30 10 -74
18 -89 5 -9 9 -36 10 -59 0 -24 4 -49 8 -55 4 -7 8 -16 8 -22 2 -35 18 -128
30 -170 7 -27 16 -79 19 -115 3 -36 13 -96 21 -135 22 -98 26 -138 27 -320 1
-149 -7 -289 -19 -308 -6 -11 -14 -56 -15 -84 0 -13 -4 -23 -8 -23 -4 0 -10
-15 -13 -34 -3 -18 -15 -54 -26 -79 -12 -25 -21 -52 -21 -59 0 -8 -9 -31 -20
-53 -11 -22 -20 -47 -20 -56 0 -9 -6 -22 -14 -28 -7 -6 -14 -21 -14 -34 0 -12
-11 -46 -26 -76 -14 -29 -23 -57 -21 -62 3 -4 -1 -25 -9 -46 -26 -69 -35 -271
-21 -468 4 -60 8 -126 10 -145 1 -19 4 -42 7 -50 4 -8 9 -33 13 -55 3 -22 8
-49 10 -60 2 -11 7 -38 10 -60 4 -22 9 -47 13 -55 5 -14 12 -66 13 -102 0 -10
5 -20 10 -23 5 -4 7 -11 4 -16 -4 -5 -3 -15 2 -22 8 -12 11 -26 17 -83 1 -17
7 -37 11 -45 5 -7 10 -32 12 -54 2 -22 6 -47 10 -55 6 -17 11 -40 17 -85 4
-28 51 -257 62 -300 3 -11 7 -31 10 -45 17 -92 29 -140 38 -163 5 -9 5 -28 2
-41 -3 -14 0 -28 8 -35 8 -7 12 -21 9 -31 -3 -11 0 -26 6 -34 7 -8 13 -35 14
-60 1 -25 5 -46 8 -46 8 0 32 -130 25 -137 -3 -3 -2 -11 3 -17 7 -9 32 -114
47 -201 2 -11 11 -54 20 -95 8 -41 17 -84 19 -95 2 -11 7 -31 10 -45 3 -14 10
-56 15 -95 6 -38 14 -88 19 -110 5 -22 14 -65 21 -95 6 -30 16 -70 22 -89 5
-18 12 -45 13 -60 2 -14 6 -35 8 -46 3 -11 6 -33 6 -48 1 -20 7 -30 21 -34 11
-3 20 -9 20 -12 0 -4 6 -8 13 -9 6 0 38 -3 70 -5 33 -2 62 -9 67 -16 6 -11 9
-11 13 0 5 12 7 12 15 0 8 -11 11 -11 16 0 5 11 7 11 12 2 7 -15 34 -17 34 -3
0 6 9 10 20 10 11 0 20 -4 20 -10 0 -12 27 -13 32 -2 2 5 73 16 158 25 171 19
176 20 270 41 111 25 120 28 120 36 0 4 25 13 55 20 31 7 52 16 47 19 -5 3
-10 13 -10 21 -2 25 -10 66 -18 102 -5 18 -9 40 -9 48 -4 52 -19 140 -24 140
-4 0 -8 15 -9 33 -2 28 -7 61 -27 162 -2 11 -4 31 -5 45 -1 14 -4 19 -7 13 -2
-7 -18 -13 -34 -13 -16 0 -29 -5 -29 -12 0 -6 -3 -9 -6 -5 -3 3 -18 1 -32 -4
-14 -5 -37 -12 -51 -14 -14 -2 -44 -8 -66 -14 -54 -13 -108 -21 -180 -28 -33
-3 -63 -10 -67 -16 -8 -13 -286 -21 -361 -11 -39 5 -48 10 -53 30 -3 13 -11
24 -16 24 -6 0 -8 9 -5 20 3 11 1 23 -4 26 -5 3 -9 18 -9 33 0 15 -4 31 -9 36
-5 6 -11 26 -14 45 -9 60 -25 134 -35 160 -6 14 -11 55 -13 90 -2 36 -9 76
-16 90 -7 14 -13 38 -13 54 0 15 -11 70 -25 122 -14 51 -28 105 -30 121 -3 15
-8 48 -11 73 -4 25 -10 50 -14 55 -7 10 -13 37 -26 120 -3 22 -8 43 -10 47 -3
4 -7 31 -10 60 -3 29 -10 58 -16 65 -5 6 -11 33 -14 60 -3 26 -9 62 -15 79
-12 40 -20 73 -24 104 -2 14 -7 36 -10 50 -11 44 -54 303 -60 357 -3 36 0 37
113 53 37 5 78 12 92 15 14 3 38 8 54 10 16 2 32 8 35 13 3 6 49 17 101 26 52
9 106 18 120 21 14 3 57 12 95 20 39 9 86 18 105 21 40 7 46 14 60 69 18 73
40 139 67 197 l26 57 -18 78 c-10 43 -22 82 -26 87 -5 6 -9 21 -9 35 0 25 -13
74 -33 121 -6 14 -11 30 -12 35 -1 10 -6 24 -26 73 -5 13 -9 31 -9 41 0 10
-11 38 -25 62 -30 54 -55 108 -55 120 0 5 -4 9 -9 9 -5 0 -13 10 -16 23 -12
40 -30 77 -37 77 -5 0 -8 7 -8 15 0 8 -9 32 -20 52 -11 21 -20 43 -20 48 0 6
-11 33 -24 61 -26 53 -86 235 -86 259 0 8 -4 15 -8 15 -4 0 -13 19 -19 43 -23
86 -55 213 -58 232 -2 11 -13 61 -25 110 -13 50 -27 122 -31 160 -10 77 -13
92 -24 117 -4 10 -5 23 -2 30 2 7 -2 29 -9 49 -7 20 -15 63 -19 95 -4 33 -16
96 -26 142 -24 104 -24 112 1 112 11 0 20 4 20 10 0 5 8 7 18 3 16 -5 16 -5
-1 8 -20 16 -58 160 -50 190 3 10 0 19 -6 19 -6 0 -11 6 -11 14 0 15 57 39 71
30 5 -3 9 1 9 9 0 8 6 17 14 20 13 5 15 -6 31 -193 2 -31 -1 -60 -7 -67 -12
-15 -4 -167 13 -242 6 -25 12 -65 15 -89 2 -24 8 -51 14 -61 5 -10 7 -21 4
-24 -3 -3 -1 -21 5 -39 10 -30 30 -148 32 -188 0 -8 3 -22 6 -30 10 -25 14
-44 17 -70 1 -14 5 -31 10 -38 7 -11 13 -33 21 -77 3 -11 6 -28 8 -37 2 -10 6
-21 10 -24 4 -4 7 -23 7 -41 0 -19 7 -47 15 -64 9 -16 13 -34 10 -39 -3 -5 -1
-11 5 -15 5 -3 10 -17 10 -30 0 -13 5 -27 10 -30 6 -3 10 -14 10 -24 0 -10 6
-31 14 -46 8 -15 12 -34 9 -41 -3 -8 0 -14 6 -14 6 0 11 -8 11 -17 0 -17 38
-104 50 -113 3 -3 18 -31 34 -62 15 -32 33 -58 41 -58 7 0 20 -15 28 -33 9
-19 32 -49 52 -68 19 -19 35 -40 35 -47 0 -7 7 -15 15 -18 8 -4 15 -13 15 -20
0 -8 7 -17 15 -20 8 -3 19 -21 25 -39 6 -18 24 -45 40 -61 18 -18 30 -39 30
-57 0 -16 4 -26 10 -22 5 3 10 -1 10 -10 0 -9 7 -26 15 -39 9 -13 15 -28 14
-32 -2 -5 6 -25 16 -46 l18 -36 45 56 c25 32 49 62 53 67 10 13 -19 115 -32
115 -6 0 -8 4 -4 9 3 6 -4 25 -15 43 -11 18 -20 40 -20 48 0 8 -13 26 -30 40
-16 14 -30 30 -30 36 0 7 -16 25 -35 41 -19 15 -62 54 -96 86 -34 31 -66 57
-71 57 -4 0 -8 9 -8 19 0 11 -9 22 -19 26 -10 3 -25 20 -32 37 -7 17 -25 45
-41 62 -15 17 -28 36 -28 43 0 7 -4 13 -10 13 -5 0 -10 9 -10 20 0 11 -4 28
-9 38 -25 46 -64 140 -67 161 -2 13 -9 28 -16 32 -7 5 -9 9 -4 9 5 0 4 6 -2
13 -5 6 -12 26 -15 42 -3 17 -12 50 -21 75 -9 25 -16 55 -16 67 0 12 -5 25
-11 29 -7 4 -9 24 -5 51 3 24 1 55 -4 67 -7 19 -29 133 -45 226 -1 8 -5 22 -8
30 -5 14 -16 92 -18 130 -1 8 -5 33 -11 54 -5 22 -11 55 -14 75 -2 20 -8 65
-13 101 -7 50 -6 72 5 94 8 16 12 37 10 45 -3 9 -8 45 -11 81 -14 163 -47 200
-183 205 -23 0 -47 -2 -53 -6z"/>
<path d="M3540 4394 c-126 -9 -365 -36 -370 -43 -3 -3 -54 -15 -115 -25 -131
-21 -328 -67 -335 -77 -3 -4 -25 -12 -50 -19 -105 -28 -230 -72 -230 -80 0 -6
-5 -10 -11 -10 -16 0 -212 -79 -218 -88 -3 -4 -49 -28 -101 -52 -52 -25 -98
-50 -103 -57 -4 -6 -36 -27 -71 -47 -35 -20 -66 -39 -68 -44 -2 -4 -33 -27
-70 -51 -38 -24 -68 -47 -68 -50 0 -4 -19 -21 -42 -38 -123 -89 -324 -337
-407 -503 -18 -36 -38 -74 -43 -84 -6 -11 -19 -47 -30 -80 -84 -251 -88 -494
-14 -742 27 -91 105 -262 142 -311 13 -17 24 -35 24 -38 0 -4 13 -24 28 -44
16 -20 40 -56 55 -81 46 -76 51 -83 84 -124 18 -22 33 -44 33 -49 0 -5 31 -43
69 -84 l68 -75 -13 -72 c-17 -87 -18 -195 -3 -247 9 -28 20 -41 43 -51 39 -16
179 -15 313 2 l101 13 89 -43 c48 -24 90 -47 93 -52 3 -4 48 -26 100 -49 52
-23 97 -45 100 -49 3 -4 66 -27 140 -51 74 -24 137 -46 140 -50 8 -10 206 -57
321 -76 57 -10 107 -21 110 -26 3 -5 36 -10 73 -13 38 -2 73 -7 78 -10 6 -4
35 -7 64 -6 30 0 54 -3 54 -7 0 -4 45 -5 101 -3 66 3 104 1 112 -7 15 -15 191
-15 181 0 -5 9 22 11 104 7 73 -4 112 -2 112 5 0 6 21 8 55 4 39 -4 53 -2 49
5 -5 8 7 9 40 5 34 -5 45 -4 40 5 -5 8 5 9 34 6 32 -5 39 -3 35 8 -4 10 3 14
21 14 14 0 26 -4 26 -10 0 -5 7 -10 16 -10 10 0 14 6 10 15 -4 11 1 15 17 15
39 0 322 70 325 80 2 6 9 10 17 10 21 0 270 82 275 90 3 5 50 28 105 51 55 24
102 46 105 49 3 4 43 26 90 50 47 23 87 46 90 50 3 4 21 15 40 25 31 16 97 61
110 75 3 4 26 20 51 37 l46 30 83 -29 c46 -16 89 -36 97 -44 8 -8 19 -14 24
-14 16 0 159 -73 159 -81 0 -4 26 -22 57 -40 31 -18 64 -40 73 -49 9 -9 39
-32 65 -50 26 -18 55 -40 64 -49 9 -9 37 -32 61 -51 25 -19 56 -46 70 -61 14
-14 45 -41 70 -60 25 -18 49 -39 53 -46 4 -7 27 -26 50 -42 23 -16 56 -42 73
-57 17 -16 57 -51 90 -79 32 -27 76 -66 96 -86 21 -20 64 -56 95 -80 32 -23
59 -46 61 -50 2 -4 33 -27 70 -51 37 -23 69 -46 70 -51 5 -11 158 -87 176 -87
8 0 16 -6 19 -12 5 -17 244 -18 255 -2 4 6 23 16 42 23 62 20 98 49 139 112
70 107 67 221 -10 370 -42 81 -146 207 -217 261 -23 18 -42 35 -42 39 0 4 -26
26 -57 50 -32 24 -62 48 -68 54 -5 6 -28 24 -50 40 -22 16 -50 39 -62 51 -12
12 -49 38 -82 59 -34 20 -61 40 -61 44 0 4 -37 27 -82 51 -46 24 -85 46 -88
50 -3 4 -43 26 -90 51 -47 24 -87 47 -90 51 -6 7 -133 58 -195 78 -22 7 -42
16 -45 20 -14 18 -325 90 -391 90 -16 0 -29 5 -29 10 0 6 -17 10 -38 10 -46 0
-57 8 -38 29 24 28 87 121 110 164 13 23 36 65 51 92 15 28 35 61 45 75 9 14
36 66 61 117 24 50 46 90 50 88 3 -3 4 7 1 22 -3 16 -1 24 5 20 6 -4 11 -1 10
6 -1 29 4 48 11 44 4 -3 7 7 8 21 1 94 5 126 13 113 5 -8 7 5 4 35 -3 31 -1
44 5 36 5 -8 8 6 6 40 -2 29 -6 98 -8 153 -7 136 -22 238 -47 309 -30 87 -96
224 -135 279 -19 26 -34 50 -34 53 0 17 -259 310 -272 308 -5 -1 -13 -2 -20
-2 -7 -1 -3 -8 8 -16 19 -14 19 -15 -1 -22 -63 -23 -89 -37 -75 -41 46 -14 46
-14 26 -29 -16 -11 -17 -17 -8 -26 20 -20 14 -28 -25 -29 -21 0 -32 -3 -25 -6
23 -9 12 -23 -19 -23 -28 0 -30 -2 -18 -17 13 -15 11 -16 -23 -10 -28 4 -38 2
-38 -7 0 -10 -28 -15 -110 -18 -100 -4 -144 -14 -113 -25 20 -7 134 -127 183
-192 30 -39 55 -62 73 -66 22 -5 26 -11 22 -26 -5 -16 0 -20 26 -26 30 -6 31
-7 13 -20 -19 -14 -19 -15 1 -29 11 -9 19 -20 18 -25 -2 -5 17 -54 42 -109 46
-101 58 -142 77 -240 17 -96 -8 -302 -46 -375 -9 -16 -16 -35 -16 -41 0 -21
-53 -129 -91 -184 -21 -30 -57 -74 -81 -96 -43 -42 -138 -96 -161 -93 -23 4
-97 -14 -97 -22 0 -5 -18 -9 -39 -9 -59 0 -70 -8 -98 -68 -55 -121 -145 -192
-243 -192 -58 0 -146 31 -180 63 -13 12 -37 32 -53 44 l-30 22 -24 -22 c-13
-12 -38 -49 -55 -82 -16 -33 -36 -67 -43 -75 -7 -8 -18 -37 -23 -65 -27 -132
-60 -178 -138 -191 -66 -10 -183 35 -184 70 0 6 -9 22 -19 35 -17 22 -19 23
-49 7 -17 -9 -35 -22 -39 -29 -14 -23 -70 -57 -93 -57 -73 0 -250 184 -250
260 0 12 13 50 29 85 46 99 45 115 -8 115 -31 0 -40 -4 -44 -20 -11 -44 -113
-199 -142 -217 -42 -25 -189 -25 -262 0 -29 10 -53 22 -53 27 0 4 -9 10 -20
13 -26 7 -26 27 -1 27 27 0 181 49 181 58 0 4 25 20 56 36 30 16 75 48 99 70
346 325 395 375 388 392 -2 6 -15 16 -29 22 -24 12 -64 1 -90 -23 -6 -5 -62
-28 -125 -49 -63 -22 -115 -43 -117 -47 -2 -4 -58 -26 -125 -50 -67 -23 -124
-46 -127 -50 -4 -6 -291 -89 -307 -89 -13 0 2 31 27 55 36 34 37 54 8 106 -54
96 -241 123 -434 64 l-74 -23 -50 25 c-124 62 -160 201 -80 313 28 39 26 41
-17 18 -27 -13 -54 -18 -93 -16 -30 1 -61 -1 -67 -5 -8 -5 -13 -30 -13 -63 0
-30 -4 -54 -8 -54 -5 0 -17 -8 -28 -17 -11 -10 -42 -33 -69 -52 -28 -19 -68
-54 -89 -79 l-40 -44 -78 4 c-64 4 -83 9 -103 28 -14 13 -25 32 -25 43 0 37
-31 124 -51 146 -16 17 -28 21 -48 16 -57 -14 -150 -17 -185 -5 -40 13 -89 57
-112 102 -9 18 -15 56 -15 101 0 121 42 210 143 300 34 31 66 57 70 57 4 0 8
5 8 10 0 6 -8 10 -19 10 -14 0 -21 10 -26 36 -8 43 -1 49 63 59 49 7 62 -2 62
-44 0 -21 3 -23 32 -17 18 3 34 10 38 14 7 10 72 29 131 37 33 5 56 16 82 41
20 20 37 39 37 43 0 4 -13 20 -30 36 -17 16 -30 34 -30 40 0 7 -9 20 -20 30
-25 23 -60 116 -60 161 0 91 106 209 230 255 76 29 144 40 222 38 65 -2 67 -1
135 48 206 152 403 241 553 251 71 4 78 3 108 -23 18 -15 32 -33 32 -41 0 -9
19 0 51 26 28 22 57 40 64 40 8 0 20 6 27 13 19 19 97 37 165 38 32 0 83 4
113 9 42 6 83 3 168 -12 61 -11 112 -24 112 -29 0 -5 6 -9 14 -9 7 0 39 -13
70 -28 31 -16 56 -25 56 -20 0 18 16 6 43 -32 16 -22 31 -40 35 -40 4 0 15 14
24 31 20 35 38 30 38 -10 l0 -28 113 17 c61 10 168 28 237 40 155 27 294 25
316 -5 18 -24 17 -63 0 -95 -11 -18 -11 -30 -4 -44 11 -20 11 -20 19 2 12 31
26 27 34 -9 6 -28 8 -29 25 -14 16 15 18 15 24 0 3 -9 6 -28 6 -41 0 -21 4
-24 20 -19 24 8 25 1 5 -55 -17 -49 -19 -63 -4 -37 15 25 29 21 29 -10 0 -25
1 -25 18 -10 26 24 32 21 32 -13 0 -20 5 -30 15 -30 19 0 19 -17 0 -50 -18
-32 -18 -41 0 -34 17 7 19 -9 5 -36 -7 -13 -7 -21 0 -25 13 -8 -10 -53 -44
-84 -25 -24 -25 -24 -6 -38 24 -17 40 -9 40 17 0 22 25 103 43 138 18 38 88
66 142 58 45 -7 45 -7 45 23 0 58 -82 233 -121 257 -19 11 -8 26 17 21 24 -4
23 -3 -10 25 -40 33 -47 58 -16 58 16 0 20 7 20 35 0 39 5 42 32 18 17 -15 18
-15 18 10 0 29 9 34 29 15 7 -7 4 6 -8 29 -26 52 -26 63 -1 63 23 0 25 9 9 44
-9 19 -37 34 -123 67 -61 23 -113 46 -116 50 -6 8 -197 72 -250 84 -19 4 -37
11 -40 15 -6 10 -246 64 -355 81 -44 7 -82 15 -85 19 -3 4 -72 15 -155 24
-143 17 -612 29 -745 20z m-1552 -1116 c7 -7 12 -25 12 -41 0 -27 -2 -28 -42
-25 -39 3 -43 5 -40 27 4 40 46 63 70 39z m857 -1652 c10 -14 13 -26 7 -26
-15 0 -42 29 -42 45 0 13 -20 21 -103 39 -47 11 -25 31 36 34 52 3 57 5 57 26
0 52 15 33 22 -27 3 -36 14 -77 23 -91z m4015 -476 c0 -5 5 -10 11 -10 15 0
182 -79 189 -89 3 -4 32 -25 65 -45 33 -21 65 -43 70 -50 6 -6 29 -25 52 -42
93 -67 220 -227 230 -288 7 -45 -4 -56 -60 -56 -38 0 -177 51 -200 74 -7 7
-39 27 -71 46 -33 18 -67 41 -76 50 -9 9 -37 31 -61 48 -57 40 -99 80 -180
174 -72 85 -94 135 -77 174 10 21 18 24 60 24 26 0 48 -4 48 -10z"/>
<path d="M6150 4279 c-67 -29 -66 -28 -105 -244 -8 -44 -20 -147 -26 -230
l-12 -150 86 -89 85 -88 -5 100 c-7 128 20 346 86 680 l8 42 -36 0 c-20 -1
-56 -10 -81 -21z"/>
<path d="M6446 4205 c-3 -9 -6 -34 -6 -54 0 -21 -11 -98 -25 -172 -61 -333
-69 -548 -27 -704 65 -243 57 -225 124 -255 116 -50 302 -53 443 -5 44 14 82
30 85 34 3 4 29 20 58 36 79 43 231 208 232 253 0 7 8 29 18 50 42 83 70 256
88 527 l7 109 -41 -42 c-23 -24 -56 -48 -74 -53 -69 -19 -368 -3 -376 21 -2 6
-13 10 -24 10 -21 0 -188 75 -198 89 -3 4 -40 27 -82 50 -43 23 -78 46 -78 50
0 6 -74 52 -111 69 -4 2 -9 -4 -13 -13z"/>
<path d="M7416 4057 c3 -10 9 -15 12 -12 3 3 0 11 -7 18 -10 9 -11 8 -5 -6z"/>
<path d="M6750 4050 c0 -5 5 -10 10 -10 6 0 10 5 10 10 0 6 -4 10 -10 10 -5 0
-10 -4 -10 -10z"/>
<path d="M5800 3774 c-37 -25 -99 -85 -123 -119 -24 -34 -23 -33 63 36 61 50
88 63 103 50 8 -6 18 -6 27 0 13 8 11 12 -10 29 -31 24 -30 24 -60 4z"/>
<path d="M3090 3751 c-89 -29 -170 -69 -253 -123 -88 -58 -88 -52 6 -116 26
-18 47 -36 47 -41 0 -4 18 -27 40 -52 22 -24 42 -52 46 -61 5 -18 24 -25 24
-10 1 15 98 110 121 117 39 12 194 79 199 86 3 4 24 15 47 24 l41 17 -22 33
c-13 18 -28 46 -35 62 l-12 30 -67 -70 c-76 -78 -106 -97 -156 -97 -43 0 -66
22 -66 63 0 26 12 43 67 94 74 69 70 76 -27 44z"/>
<path d="M4660 3720 c-19 -4 -28 -8 -19 -9 8 0 32 -16 52 -35 27 -24 37 -42
37 -63 0 -17 7 -44 16 -61 17 -36 90 -97 98 -83 3 5 -6 16 -20 26 -24 15 -24
18 -8 29 12 9 14 15 6 20 -20 12 -14 39 7 33 14 -3 17 0 14 14 -7 26 17 25 51
-2 30 -24 31 -23 10 26 -8 20 -14 49 -12 63 3 26 3 26 22 6 19 -19 20 -19 13
6 -4 14 -7 28 -7 33 0 9 -213 7 -260 -3z"/>
<path d="M3714 3197 c-3 -8 0 -34 6 -58 28 -113 32 -133 26 -164 -5 -26 -20
-45 -61 -77 -30 -24 -55 -46 -55 -50 0 -5 14 -8 31 -8 60 0 118 -22 160 -61
42 -39 68 -46 36 -11 -22 24 -21 39 3 54 18 12 16 14 -22 28 -46 17 -51 30
-20 46 l21 10 -20 21 c-11 11 -22 31 -24 44 -2 13 -12 70 -24 127 -12 57 -21
105 -21 108 0 10 -31 3 -36 -9z"/>
<path d="M4738 3153 c7 -3 16 -2 19 1 4 3 -2 6 -13 5 -11 0 -14 -3 -6 -6z"/>
<path d="M4375 3111 c-3 -5 -2 -35 1 -66 8 -64 17 -57 32 23 8 47 8 52 -9 52
-10 0 -20 -4 -24 -9z"/>
<path d="M4778 3108 c-32 -11 -35 -20 -13 -38 25 -21 17 -29 -45 -47 -62 -17
-71 -26 -44 -41 25 -14 8 -31 -37 -38 -41 -7 -57 -18 -39 -29 20 -12 9 -25
-21 -25 -19 0 -28 -4 -23 -11 3 -6 0 -15 -7 -20 -21 -13 -9 -17 56 -20 48 -2
61 0 63 13 2 10 18 18 43 22 21 3 69 25 107 47 72 44 212 140 212 144 0 12
-115 38 -159 36 -30 -1 -57 2 -60 7 -4 5 -17 5 -33 0z"/>
<path d="M5202 3107 c-9 -10 -4 -13 23 -13 27 0 32 3 23 13 -6 7 -16 13 -23
13 -7 0 -17 -6 -23 -13z"/>
<path d="M4234 3070 c-12 -5 -24 -20 -26 -35 -5 -26 20 -54 79 -84 29 -15 33
-14 33 7 0 14 -56 123 -63 121 -1 0 -12 -4 -23 -9z"/>
<path d="M5116 3055 c-8 -8 -22 -15 -32 -15 -9 0 -78 -41 -153 -92 -168 -112
-172 -124 -59 -148 53 -11 81 -13 88 -6 7 7 14 4 23 -9 12 -16 23 -17 76 -12
60 7 62 6 72 -20 13 -36 3 -74 -21 -80 -11 -3 -20 -11 -20 -18 0 -7 -10 -15
-22 -18 -21 -6 -21 -7 -5 -25 23 -25 21 -32 -5 -33 -22 0 -22 0 2 -10 13 -6
27 -15 31 -21 4 -6 10 -2 13 10 9 26 57 62 84 62 11 0 25 -7 32 -15 13 -16 47
-20 75 -9 19 8 55 85 55 117 -1 20 -2 21 -14 5 -19 -26 -27 -22 -16 8 10 25
13 120 3 97 -8 -22 -21 -14 -28 17 -4 16 -12 28 -18 27 -7 -1 -16 21 -21 56
-8 51 -12 57 -33 57 -17 0 -28 10 -41 38 -25 54 -40 63 -66 37z"/>
<path d="M4390 2891 c0 -25 19 -31 88 -31 l57 1 -45 24 c-56 30 -100 33 -100
6z"/>
<path d="M3208 2865 c-35 -33 -69 -45 -121 -45 -37 0 -45 -4 -60 -30 -58 -98
-118 -133 -218 -128 l-69 3 0 -50 c0 -27 -7 -63 -15 -79 -8 -15 -15 -30 -15
-33 0 -6 63 38 75 53 6 7 45 29 88 49 42 20 77 40 77 44 0 14 98 53 161 65 52
9 64 15 65 31 1 11 2 25 3 31 1 9 62 44 78 44 3 0 3 -18 -1 -40 -5 -35 -4 -40
13 -40 11 0 22 6 24 13 4 9 8 9 15 -2 8 -11 10 -11 15 0 4 12 7 11 16 -1 7
-10 11 -11 11 -2 0 6 11 12 25 12 14 0 25 -4 25 -10 0 -5 16 -10 35 -10 46 0
47 25 0 40 -19 6 -50 29 -68 51 -28 32 -40 39 -70 39 -20 0 -39 5 -42 10 -9
15 -18 12 -47 -15z"/>
<path d="M4330 2855 c-20 -22 -22 -29 -12 -43 6 -9 21 -36 33 -60 26 -51 31
-50 19 3 -5 22 -10 59 -11 83 -2 23 -3 42 -4 42 -1 0 -12 -11 -25 -25z"/>
<path d="M4400 2773 c0 -10 3 -28 6 -40 5 -19 9 -20 29 -11 27 12 23 30 -11
53 -22 14 -24 14 -24 -2z"/>
<path d="M4468 2687 c-16 -6 -28 -14 -28 -18 0 -11 103 -99 115 -99 5 0 29 8
52 18 41 16 58 42 29 42 -8 0 -21 6 -28 13 -18 16 -95 57 -105 56 -4 -1 -20
-6 -35 -12z"/>
<path d="M4402 2638 c8 -20 25 -84 33 -120 7 -35 33 -37 63 -5 12 13 22 25 22
28 0 2 -28 29 -62 59 -34 30 -59 47 -56 38z"/>
<path d="M1100 2232 c-35 -13 -65 -70 -56 -107 8 -31 -46 -50 -85 -30 -25 13
-32 13 -74 -5 -48 -21 -56 -31 -57 -76 -1 -66 2 -84 17 -84 9 0 18 -7 21 -15
4 -8 14 -15 23 -15 13 0 16 -12 18 -62 0 -35 -4 -69 -9 -76 -29 -34 -13 -139
25 -164 7 -4 6 -12 -2 -22 -8 -9 -11 -26 -7 -40 5 -19 1 -26 -13 -31 -26 -8
-32 -28 -36 -117 -3 -64 0 -79 16 -97 11 -12 24 -21 29 -21 6 0 10 -8 10 -17
0 -14 2 -15 9 -4 7 11 9 11 14 0 4 -12 7 -11 16 1 7 10 11 11 11 3 0 -7 14 1
30 19 19 19 30 41 30 59 0 16 5 29 10 29 6 0 10 -4 10 -10 0 -5 14 -10 30 -10
21 0 30 5 30 17 0 9 7 25 16 34 9 10 17 29 17 43 0 19 6 25 32 30 51 10 80 49
79 106 -1 30 2 47 10 47 51 -1 66 4 66 23 0 11 6 20 14 20 8 0 17 7 20 16 10
26 7 89 -5 101 -8 8 -9 20 -1 42 12 35 6 68 -20 95 -13 15 -15 22 -6 27 18 12
-7 61 -29 57 -12 -2 -19 4 -21 20 -3 23 -22 31 -22 10 0 -8 -6 -6 -17 4 -14
15 -14 19 -2 34 13 16 11 17 -13 12 -31 -6 -37 6 -11 21 13 7 23 5 36 -6 12
-12 8 5 -15 57 -19 42 -34 67 -36 57 -3 -13 -7 -15 -23 -7 -10 6 -19 16 -19
23 0 13 -35 19 -60 9z"/>
<path d="M1955 1093 c-39 -6 -45 -17 -38 -73 5 -42 3 -48 -16 -53 -21 -5 -22
-9 -15 -69 4 -35 9 -67 12 -73 7 -11 12 -42 13 -70 0 -10 4 -24 9 -30 5 -6 11
-33 14 -60 2 -28 14 -99 25 -159 12 -60 21 -111 21 -113 0 -8 59 42 59 50 1 4
13 26 27 48 28 45 28 57 0 189 -8 41 -18 98 -21 125 -2 28 -7 64 -10 80 -3 17
-7 46 -10 65 -2 19 -7 46 -11 60 -3 14 -7 36 -9 50 -4 38 -4 40 -12 39 -5 -1
-21 -4 -38 -6z"/>
</g>
</svg>
