<?xml version="1.0" standalone="no"?>
<!DOCTYPE svg PUBLIC "-//W3C//DTD SVG 20010904//EN"
 "http://www.w3.org/TR/2001/REC-SVG-20010904/DTD/svg10.dtd">
<svg version="1.0" xmlns="http://www.w3.org/2000/svg"
 width="1168.000000pt" height="240.000000pt" viewBox="0 0 1168.000000 240.000000"
 preserveAspectRatio="xMidYMid meet">

<g transform="translate(0.000000,240.000000) scale(0.100000,-0.100000)"
fill="#6B493D" stroke="none">
<path d="M4201 1903 c-20 -21 -48 -91 -115 -288 -113 -335 -180 -477 -279
-595 -16 -19 -77 -76 -136 -125 -112 -96 -137 -133 -109 -161 25 -25 75 -11
160 45 181 118 293 244 388 436 57 115 240 627 240 671 0 32 -20 44 -73 44
-40 0 -53 -5 -76 -27z"/>
<path d="M1323 1842 c-238 -207 -432 -333 -762 -496 -95 -47 -179 -93 -187
-103 -18 -24 -17 -68 2 -83 12 -11 25 -10 72 4 84 26 252 100 370 161 56 29
102 52 102 51 0 -1 -43 -127 -95 -280 -52 -152 -95 -290 -95 -305 0 -41 22
-55 76 -48 30 3 54 13 70 28 35 36 237 631 231 681 -5 36 -4 37 78 91 121 81
280 212 304 251 12 18 21 43 21 55 0 32 -35 61 -75 61 -29 0 -48 -12 -112 -68z"/>
<path d="M2511 1889 c-13 -5 -85 -71 -160 -147 -77 -79 -188 -176 -256 -228
-118 -88 -151 -126 -139 -158 11 -28 42 -28 101 -1 79 36 233 140 323 220 41
36 89 71 105 79 43 19 285 29 285 12 0 -29 -117 -191 -203 -283 l-40 -42 -51
44 c-60 51 -140 95 -172 95 -32 0 -84 -47 -84 -75 0 -13 18 -44 40 -70 48 -55
100 -130 100 -143 0 -23 -270 -204 -415 -279 -107 -54 -145 -87 -145 -124 0
-64 44 -61 197 11 369 174 683 443 905 773 99 147 118 206 77 243 -19 17 -35
19 -188 16 l-167 -3 -12 26 c-6 14 -23 30 -38 35 -30 12 -32 12 -63 -1z"/>
<path d="M3695 1862 c-16 -10 -36 -30 -43 -43 -18 -35 -182 -528 -182 -548 0
-27 21 -41 62 -41 46 0 93 22 108 50 12 23 190 539 190 551 0 5 -9 18 -20 29
-25 25 -75 26 -115 2z"/>
<path d="M5385 1795 c-371 -25 -477 -36 -503 -49 -56 -29 -81 -114 -40 -140
13 -8 134 -2 445 22 481 37 453 35 453 23 0 -19 -104 -123 -198 -198 -54 -43
-102 -84 -109 -93 -27 -33 -9 -80 30 -80 61 0 260 144 404 292 107 111 131
155 112 204 -10 27 -64 55 -101 53 -13 -1 -235 -16 -493 -34z"/>
<path d="M9720 1801 c-128 -42 -213 -84 -335 -165 -274 -184 -454 -402 -525
-634 -60 -198 39 -302 263 -278 95 11 288 80 432 155 156 80 353 204 418 261
l47 42 -36 -78 c-105 -227 -124 -324 -63 -324 24 0 91 33 108 54 7 8 14 32 15
54 5 70 255 599 334 709 66 89 87 146 71 185 -16 39 -53 47 -85 17 -13 -13
-77 -120 -141 -239 -162 -301 -163 -304 -175 -292 -7 7 -35 -8 -87 -45 -209
-151 -497 -309 -664 -365 -123 -41 -238 -49 -285 -19 -45 29 -56 63 -43 129
25 126 176 356 308 468 227 193 507 324 583 274 12 -8 0 -24 -63 -84 -81 -76
-94 -105 -56 -129 32 -20 73 3 157 89 75 78 82 89 82 125 0 118 -86 147 -260
90z"/>
<path d="M6425 1778 c-60 -35 -61 -84 -2 -130 23 -18 74 -63 114 -100 61 -58
77 -68 108 -68 48 0 113 59 121 111 6 32 2 40 -32 73 -48 46 -184 114 -245
121 -26 3 -52 1 -64 -7z"/>
<path d="M11415 1783 c-16 -2 -95 -17 -175 -33 -178 -36 -321 -56 -505 -70
-184 -14 -213 -22 -230 -63 -12 -28 -12 -33 2 -44 22 -17 92 -16 238 2 139 17
205 19 205 5 0 -5 -41 -98 -91 -207 -183 -397 -230 -551 -183 -597 19 -20 34
-20 62 0 31 22 42 47 63 142 32 147 254 660 299 693 43 31 155 50 338 56 192
6 197 8 190 76 -2 23 -9 33 -28 38 -27 8 -136 9 -185 2z"/>
<path d="M7242 1538 c-17 -13 -69 -54 -114 -91 -255 -210 -576 -376 -896 -463
-96 -26 -145 -83 -128 -149 11 -43 49 -50 144 -26 314 79 706 297 984 547 114
103 140 143 118 184 -15 28 -68 26 -108 -2z"/>
<path d="M5285 1521 c-45 -20 -50 -28 -101 -166 -86 -235 -171 -354 -329 -462
-93 -64 -119 -99 -104 -140 12 -33 47 -29 127 11 179 90 321 234 414 421 50
98 108 258 108 295 0 26 -6 33 -35 46 -41 17 -32 17 -80 -5z"/>
</g>
</svg>
